<svg width="70" height="70" viewBox="0 0 70 70" fill="none" xmlns="http://www.w3.org/2000/svg">
<path d="M69.2441 69.2441H0V0H69.2441V69.2441ZM42.5439 31.1787C35.093 24.955 26.1963 33.4133 29.5928 41.7627C31.4994 47.8769 40.3968 48.7538 44.4072 44.2832C44.3415 44.1955 44.2972 44.1297 44.2314 44.042C43.1359 42.5082 42.8727 42.1138 40.9443 43.3848C37.1094 45.62 32.3101 43.0782 32.5947 38.3887H43.793C46.0282 37.8189 43.8375 32.0989 42.5664 31.1562V31.1787H42.5439ZM58.1689 29.2939C58.1029 29.2941 57.9502 29.3154 57.9502 29.3154H57.9062C57.5339 29.3155 57.2494 29.513 57.0303 29.9072L53.6992 34.7725C53.5021 35.0791 53.3703 35.3857 53.2607 35.6924C52.8663 35.0787 52.099 33.83 51.332 32.5811C50.061 30.5649 47.8476 29.3155 45.459 29.3154H45.0859V29.3594H44.7578L46.1387 31.332C46.6864 32.0989 47.2562 32.8438 47.8916 33.5449L50.8496 37.9277L44.8232 47.0889H48.0889C48.3298 47.0888 48.5273 47.0225 48.6807 46.8691C48.834 46.7158 48.9653 46.5405 49.0967 46.3652L52.7344 40.8213C52.9097 40.5364 53.0418 40.1855 53.1514 39.791C53.1972 39.8818 54.0945 41.3269 55.0576 42.9248L55.6709 43.9111C56.8762 45.8834 59.0027 47.0889 61.3037 47.0889H61.7412V47.0449L57.4902 40.4482L57.4463 40.3828L55.7373 37.7305L61.5225 29.2939H58.1689ZM17.3643 22.1934H17.1885C16.049 22.2153 15.0411 22.4125 14.1865 22.7412C13.2661 23.1357 12.5423 23.6613 11.9287 24.2969C11.3371 24.9543 10.8776 25.6999 10.5928 26.5107C10.286 27.3654 10.1318 28.2857 10.1318 29.2061V29.9951H7.48047C7.87497 30.8936 8.88306 32.3395 11.2275 32.4492C11.2199 32.4572 10.7623 32.936 10.1104 33.4141V47.0449C11.3156 47.0449 12.389 46.4526 13.0684 45.5322C13.5066 44.9187 13.7919 44.174 13.792 43.3633V32.6025H18V29.9727H13.6826V29.1836C13.6827 27.7595 14.0548 26.6859 14.7559 25.9189C15.3914 25.2615 16.2465 24.8884 17.3203 24.8008H17.6494C18.8325 24.8005 19.8182 23.8369 19.8184 22.6318V22.1494H17.3643V22.1934ZM21.8564 43.4072C21.8567 45.4231 23.4783 47.0448 25.4941 47.0449H29.4609C25.867 46.2779 25.5161 42.1797 25.4941 41.04V25.8311C25.4941 23.8149 23.8726 22.1934 21.8564 22.1934V43.4072ZM32.7041 36.1309C32.8577 30.4771 41.645 30.3237 41.3604 36.1309H32.7041Z" fill="white"/>
</svg>
